<?xml version="1.0" encoding="utf-8"?>
<!-- Generator: Adobe Illustrator 27.9.0, SVG Export Plug-In . SVG Version: 6.00 Build 0)  -->
<svg version="1.1" id="Layer_1" xmlns="http://www.w3.org/2000/svg" xmlns:xlink="http://www.w3.org/1999/xlink" x="0px" y="0px"
	 viewBox="0 0 600 466.7" style="enable-background:new 0 0 600 466.7;" xml:space="preserve">
<style type="text/css">
	.st0{fill:#5E535C;}
</style>
<path class="st0" d="M566.7,466.7H33.3C14.9,466.7,0,451.7,0,433.3S14.9,400,33.3,400h533.3c18.4,0,33.3,14.9,33.3,33.3
	S585.1,466.7,566.7,466.7z M566.7,266.7H33.3C14.9,266.7,0,251.7,0,233.3S14.9,200,33.3,200h533.3c18.4,0,33.3,14.9,33.3,33.3
	S585.1,266.7,566.7,266.7z M566.7,66.7H33.3C14.9,66.7,0,51.7,0,33.3S14.9,0,33.3,0h533.3C585.1,0,600,14.9,600,33.3
	S585.1,66.7,566.7,66.7z"/>
</svg>
